HIERARCHY
ROOT Hips
{
	OFFSET 0.000000 121.760803 0.000000
	CHANNELS 6 Xposition Yposition Zposition Xrotation Yrotation Zrotation 
	JOINT Spine
	{
		OFFSET 0.072000 7.257294 -0.789700
		CHANNELS 3 Xrotation Yrotation Zrotation
		JOINT Spine1
		{
			OFFSET 0.000000 12.508769 -0.658067
			CHANNELS 3 Xrotation Yrotation Zrotation
			JOINT Spine1_split
			{
				OFFSET 0.000000 12.508769 -0.658067
				CHANNELS 3 Xrotation Yrotation Zrotation
				JOINT Spine2
				{
					OFFSET 0.000000 12.508769 -0.658067
					CHANNELS 3 Xrotation Yrotation Zrotation
					JOINT Neck
					{
						OFFSET 0.000000 14.033295 7.520400
						CHANNELS 3 Xrotation Yrotation Zrotation
						JOINT Head
						{
							OFFSET 0.000000 8.198502 5.703100
							CHANNELS 3 Xrotation Yrotation Zrotation
							JOINT HeadTop_End
							{
								OFFSET 0.000000 17.760803 13.332701
								CHANNELS 3 Xrotation Yrotation Zrotation
								End Site
								{
									OFFSET 0.000000 0.000000 0.000000
								}
							}
						}
					}
					JOINT LeftShoulder
					{
						OFFSET 6.292450 5.785301 -0.669000
						CHANNELS 3 Xrotation Yrotation Zrotation
						JOINT LeftShoulder_split
						{
							OFFSET 6.292450 5.785301 -0.669000
							CHANNELS 3 Xrotation Yrotation Zrotation
							JOINT LeftArm
							{
								OFFSET 13.907140 -6.093903 1.965100
								CHANNELS 3 Xrotation Yrotation Zrotation
								JOINT LeftForeArm
								{
									OFFSET 34.140198 0.000000 0.000000
									CHANNELS 3 Xrotation Yrotation Zrotation
									JOINT LeftHand
									{
										OFFSET 40.960209 0.000000 0.000000
										CHANNELS 3 Xrotation Yrotation Zrotation
										JOINT LeftHandThumb1
										{
											OFFSET 10.006996 -7.170425 9.573125
											CHANNELS 3 Xrotation Yrotation Zrotation
											JOINT LeftHandThumb2
											{
												OFFSET 1.835007 -1.059448 1.059443
												CHANNELS 3 Xrotation Yrotation Zrotation
												JOINT LeftHandThumb3
												{
													OFFSET 2.112267 -1.219513 1.219518
													CHANNELS 3 Xrotation Yrotation Zrotation
													JOINT LeftHandThumb4
													{
														OFFSET 4.843811 -2.796570 2.796576
														CHANNELS 3 Xrotation Yrotation Zrotation
														End Site
														{
															OFFSET 0.000000 0.000000 0.000000
														}
													}
												}
											}
										}
										JOINT LeftHandIndex1
										{
											OFFSET 18.389847 -0.922348 4.596882
											CHANNELS 3 Xrotation Yrotation Zrotation
											JOINT LeftHandIndex2
											{
												OFFSET 4.711273 0.000000 0.000000
												CHANNELS 3 Xrotation Yrotation Zrotation
												JOINT LeftHandIndex3
												{
													OFFSET 2.886131 0.000000 0.000000
													CHANNELS 3 Xrotation Yrotation Zrotation
													JOINT LeftHandIndex4
													{
														OFFSET 6.145912 0.000000 0.000000
														CHANNELS 3 Xrotation Yrotation Zrotation
														End Site
														{
															OFFSET 0.000000 0.000000 0.000000
														}
													}
												}
											}
										}
										JOINT LeftHandMiddle1
										{
											OFFSET 18.013008 0.000000 0.000000
											CHANNELS 3 Xrotation Yrotation Zrotation
											JOINT LeftHandMiddle2
											{
												OFFSET 4.946693 0.000000 0.000000
												CHANNELS 3 Xrotation Yrotation Zrotation
												JOINT LeftHandMiddle3
												{
													OFFSET 3.342232 0.000000 0.000000
													CHANNELS 3 Xrotation Yrotation Zrotation
													JOINT LeftHandMiddle4
													{
														OFFSET 4.461754 0.000000 0.000000
														CHANNELS 3 Xrotation Yrotation Zrotation
														End Site
														{
															OFFSET 0.000000 0.000000 0.000000
														}
													}
												}
											}
										}
										JOINT LeftHandRing1
										{
											OFFSET 15.849892 -0.102921 -4.126150
											CHANNELS 3 Xrotation Yrotation Zrotation
											JOINT LeftHandRing2
											{
												OFFSET 3.527054 0.000000 0.000000
												CHANNELS 3 Xrotation Yrotation Zrotation
												JOINT LeftHandRing3
												{
													OFFSET 2.961098 0.000000 0.000000
													CHANNELS 3 Xrotation Yrotation Zrotation
													JOINT LeftHandRing4
													{
														OFFSET 4.927200 0.000000 0.000000
														CHANNELS 3 Xrotation Yrotation Zrotation
														End Site
														{
															OFFSET 0.000000 0.000000 0.000000
														}
													}
												}
											}
										}
										JOINT LeftHandPinky1
										{
											OFFSET 12.791824 -0.832031 -6.799156
											CHANNELS 3 Xrotation Yrotation Zrotation
											JOINT LeftHandPinky2
											{
												OFFSET 3.327133 0.000000 0.000000
												CHANNELS 3 Xrotation Yrotation Zrotation
												JOINT LeftHandPinky3
												{
													OFFSET 3.014900 0.000000 0.000000
													CHANNELS 3 Xrotation Yrotation Zrotation
													JOINT LeftHandPinky4
													{
														OFFSET 5.847786 0.000000 0.000000
														CHANNELS 3 Xrotation Yrotation Zrotation
														End Site
														{
															OFFSET 0.000000 0.000000 0.000000
														}
													}
												}
											}
										}
									}
								}
							}
						}
					}
					JOINT RightShoulder
					{
						OFFSET -6.292450 5.785301 -0.669000
						CHANNELS 3 Xrotation Yrotation Zrotation
						JOINT RightShoulder_split
						{
							OFFSET -6.292450 5.785301 -0.669000
							CHANNELS 3 Xrotation Yrotation Zrotation
							JOINT RightArm
							{
								OFFSET -13.907140 -6.093903 1.965100
								CHANNELS 3 Xrotation Yrotation Zrotation
								JOINT RightForeArm
								{
									OFFSET -34.140198 0.000000 0.000000
									CHANNELS 3 Xrotation Yrotation Zrotation
									JOINT RightHand
									{
										OFFSET -40.960209 0.000000 0.000000
										CHANNELS 3 Xrotation Yrotation Zrotation
										JOINT RightHandThumb1
										{
											OFFSET -10.007050 -7.170456 9.573117
											CHANNELS 3 Xrotation Yrotation Zrotation
											JOINT RightHandThumb2
											{
												OFFSET -1.835007 -1.059448 1.059443
												CHANNELS 3 Xrotation Yrotation Zrotation
												JOINT RightHandThumb3
												{
													OFFSET -2.112267 -1.219513 1.219518
													CHANNELS 3 Xrotation Yrotation Zrotation
													JOINT RightHandThumb4
													{
														OFFSET -4.843834 -2.796585 2.796590
														CHANNELS 3 Xrotation Yrotation Zrotation
														End Site
														{
															OFFSET 0.000000 0.000000 0.000000
														}
													}
												}
											}
										}
										JOINT RightHandIndex1
										{
											OFFSET -18.389870 -0.922424 4.596786
											CHANNELS 3 Xrotation Yrotation Zrotation
											JOINT RightHandIndex2
											{
												OFFSET -4.711273 0.000000 0.000000
												CHANNELS 3 Xrotation Yrotation Zrotation
												JOINT RightHandIndex3
												{
													OFFSET -2.886131 0.000000 0.000000
													CHANNELS 3 Xrotation Yrotation Zrotation
													JOINT RightHandIndex4
													{
														OFFSET -6.145920 0.000000 0.000000
														CHANNELS 3 Xrotation Yrotation Zrotation
														End Site
														{
															OFFSET 0.000000 0.000000 0.000000
														}
													}
												}
											}
										}
										JOINT RightHandMiddle1
										{
											OFFSET -18.013008 0.000000 0.000000
											CHANNELS 3 Xrotation Yrotation Zrotation
											JOINT RightHandMiddle2
											{
												OFFSET -4.946693 0.000000 0.000000
												CHANNELS 3 Xrotation Yrotation Zrotation
												JOINT RightHandMiddle3
												{
													OFFSET -3.342232 0.000000 0.000000
													CHANNELS 3 Xrotation Yrotation Zrotation
													JOINT RightHandMiddle4
													{
														OFFSET -4.461754 0.000000 0.000000
														CHANNELS 3 Xrotation Yrotation Zrotation
														End Site
														{
															OFFSET 0.000000 0.000000 0.000000
														}
													}
												}
											}
										}
										JOINT RightHandRing1
										{
											OFFSET -15.849876 -0.102936 -4.126237
											CHANNELS 3 Xrotation Yrotation Zrotation
											JOINT RightHandRing2
											{
												OFFSET -3.527054 0.000000 0.000000
												CHANNELS 3 Xrotation Yrotation Zrotation
												JOINT RightHandRing3
												{
													OFFSET -2.961098 0.000000 0.000000
													CHANNELS 3 Xrotation Yrotation Zrotation
													JOINT RightHandRing4
													{
														OFFSET -4.927200 0.000000 0.000000
														CHANNELS 3 Xrotation Yrotation Zrotation
														End Site
														{
															OFFSET 0.000000 0.000000 0.000000
														}
													}
												}
											}
										}
										JOINT RightHandPinky1
										{
											OFFSET -12.791786 -0.832077 -6.799222
											CHANNELS 3 Xrotation Yrotation Zrotation
											JOINT RightHandPinky2
											{
												OFFSET -3.327133 0.000000 0.000000
												CHANNELS 3 Xrotation Yrotation Zrotation
												JOINT RightHandPinky3
												{
													OFFSET -3.014900 0.000000 0.000000
													CHANNELS 3 Xrotation Yrotation Zrotation
													JOINT RightHandPinky4
													{
														OFFSET -5.847786 0.000000 0.000000
														CHANNELS 3 Xrotation Yrotation Zrotation
														End Site
														{
															OFFSET 0.000000 0.000000 0.000000
														}
													}
												}
											}
										}
									}
								}
							}
						}
					}
				}
			}
		}
	}
	JOINT LeftUpLeg
	{
		OFFSET 13.026900 -6.336304 -1.092800
		CHANNELS 3 Xrotation Yrotation Zrotation
		JOINT LeftLeg
		{
			OFFSET 0.524474 -46.096886 9.782700
			CHANNELS 3 Xrotation Yrotation Zrotation
			JOINT LeftFoot
			{
				OFFSET -0.524474 -53.427422 -12.948200
				CHANNELS 3 Xrotation Yrotation Zrotation
				JOINT LeftToeBase
				{
					OFFSET 0.192200 -14.009700 16.364100
					CHANNELS 3 Xrotation Yrotation Zrotation
					JOINT LeftToe_End
					{
						OFFSET -1.784700 -0.561700 9.474800
						CHANNELS 3 Xrotation Yrotation Zrotation
						End Site
						{
							OFFSET 0.000000 0.000000 0.000000
						}
					}
				}
			}
		}
	}
	JOINT RightUpLeg
	{
		OFFSET -12.883000 -6.336304 -1.092800
		CHANNELS 3 Xrotation Yrotation Zrotation
		JOINT RightLeg
		{
			OFFSET -0.524587 -46.096825 9.782800
			CHANNELS 3 Xrotation Yrotation Zrotation
			JOINT RightFoot
			{
				OFFSET 0.524587 -53.427383 -12.948300
				CHANNELS 3 Xrotation Yrotation Zrotation
				JOINT RightToeBase
				{
					OFFSET -0.192200 -14.009700 16.364100
					CHANNELS 3 Xrotation Yrotation Zrotation
					JOINT RightToe_End
					{
						OFFSET 1.784700 -0.561700 9.474800
						CHANNELS 3 Xrotation Yrotation Zrotation
						End Site
						{
							OFFSET 0.000000 0.000000 0.000000
						}
					}
				}
			}
		}
	}
}
MOTION
Frames: 4
Frame Time: 0.016667
-5.763065 107.205063 57.482018 29.071915 4.161223 -17.101796 6.351454 14.003501 -9.182461 11.648222 11.205354 -7.545689 0.000000 0.000000 0.000000 11.698388 11.155154 -7.567855 -9.883405 -7.149089 7.463519 -30.256321 -33.917661 18.385671 0.000001 0.000000 0.000000 -0.266290 3.848961 2.890079 0.000000 0.000000 0.000000 28.180078 -44.869825 -18.300117 0.000006 -24.379739 -0.000008 -6.282360 38.817003 -1.221400 -3.708767 -5.344636 -9.285595 10.685389 16.536453 0.020102 2.736441 5.880164 2.697147 0.000001 0.000000 0.000001 0.013974 0.439248 -3.642311 0.025877 0.597752 -4.959543 0.006483 0.299143 -2.479688 -0.000002 -0.000000 -0.000000 0.013835 0.437320 -3.626332 0.026061 0.599657 -4.975520 0.006472 0.299171 -2.479723 -0.000002 -0.000002 -0.000000 0.013973 0.439235 -3.642307 0.025877 0.597759 -4.959536 0.006486 0.299148 -2.479704 0.000000 -0.000000 -0.000000 0.254029 4.486448 -3.142205 0.013186 -3.456769 -5.468403 0.006483 0.299156 -2.479702 0.000002 0.000001 -0.000000 4.952153 16.802286 -7.381374 0.000000 0.000000 0.000000 -6.598553 60.118212 21.651655 -0.000006 37.609112 0.000002 -29.432593 -31.794971 -16.154806 31.276471 -0.747351 -0.159465 -3.876771 -9.680816 -4.069527 -5.448484 -0.536443 -3.405181 0.000001 0.000002 0.000000 0.578532 -2.781515 23.494942 0.464473 -2.503091 21.020985 0.117035 -1.272903 10.505437 -0.000000 -0.000001 0.000000 0.578530 -2.781513 23.494932 0.464470 -2.503097 21.020976 0.117037 -1.272908 10.505436 0.000001 -0.000002 0.000001 0.578527 -2.781509 23.494934 0.464467 -2.503098 21.020973 0.117036 -1.272909 10.505452 -0.000000 -0.000000 0.000000 0.578529 -2.781514 23.494932 0.464467 -2.503100 21.020981 0.117041 -1.272907 10.505437 0.000001 0.000001 0.000002 -69.472012 -2.819300 14.633945 33.398881 9.515395 -5.861742 5.729064 0.728042 6.602358 -0.206839 -0.000019 0.000000 -0.000000 -0.000002 -0.000000 -9.896195 -21.296861 -21.518279 76.382388 -3.062654 -3.170772 30.983145 1.512146 4.712927 -0.000009 0.000006 -0.000005 -0.000001 0.000000 0.000001 
-5.892040 106.984657 58.054932 28.280653 4.884171 -16.920827 6.348079 13.098378 -9.528787 11.676780 10.962424 -7.565069 0.000000 0.000000 0.000000 11.760139 10.875354 -7.586994 -9.995529 -7.064424 7.301281 -30.252571 -33.572985 18.432234 0.000002 -0.000000 0.000000 -0.255796 3.725910 3.215395 0.000000 0.000000 0.000000 28.574274 -46.646022 -14.108402 0.000006 -23.223231 -0.000010 -8.175395 37.907417 -1.748944 -3.708767 -5.344632 -9.285597 10.685390 16.536448 0.020103 2.736438 5.880165 2.697147 0.000002 -0.000001 -0.000000 0.013973 0.439254 -3.642312 0.025875 0.597745 -4.959537 0.006482 0.299141 -2.479690 0.000000 -0.000001 -0.000001 0.013836 0.437323 -3.626331 0.026062 0.599657 -4.975519 0.006473 0.299165 -2.479722 0.000000 -0.000002 0.000001 0.013973 0.439239 -3.642308 0.025877 0.597756 -4.959535 0.006487 0.299150 -2.479703 0.000001 0.000000 0.000000 0.254031 4.486452 -3.142209 0.013186 -3.456771 -5.468399 0.006481 0.299155 -2.479702 -0.000001 0.000000 -0.000001 4.755320 16.291750 -6.875292 0.000000 0.000000 0.000000 -6.385709 57.667130 19.002380 0.000010 35.965594 0.000009 -31.597196 -30.685400 -17.384508 31.221351 -0.795021 -0.187871 -3.869671 -9.704034 -4.071600 -5.444426 -0.547819 -3.406995 -0.000003 0.000002 -0.000002 0.577763 -2.779701 23.478801 0.463240 -2.499877 20.992737 0.116713 -1.271224 10.491319 0.000001 0.000001 -0.000004 0.577764 -2.779711 23.478789 0.463240 -2.499879 20.992742 0.116709 -1.271210 10.491309 0.000002 0.000004 -0.000001 0.577760 -2.779708 23.478792 0.463241 -2.499882 20.992738 0.116713 -1.271219 10.491318 0.000001 0.000002 0.000001 0.577763 -2.779709 23.478792 0.463236 -2.499883 20.992737 0.116715 -1.271205 10.491308 -0.000000 -0.000001 0.000000 -68.905216 -2.226351 14.476034 34.232990 8.708849 -5.821304 5.082761 0.726982 6.589546 -0.212791 0.000002 -0.000002 -0.000000 0.000002 0.000000 -11.000873 -21.291315 -20.806862 74.750089 -2.299987 -3.303821 30.977206 1.220011 3.538869 -0.000004 -0.000000 -0.000004 -0.000002 -0.000001 0.000001 
-6.004055 106.814804 58.637009 27.482154 5.588661 -16.768816 6.360231 12.176783 -9.882608 11.743706 10.656883 -7.606250 0.000000 0.000000 0.000000 11.859999 10.534739 -7.618945 -10.124068 -6.973867 7.156025 -30.258776 -33.172473 18.493002 0.000001 -0.000000 -0.000000 -0.246501 3.605298 3.561315 0.000000 0.000000 0.000000 28.114730 -48.438865 -10.572319 0.000003 -21.961911 0.000000 -10.198589 36.602659 -1.666792 -3.708768 -5.344632 -9.285595 10.685390 16.536450 0.020101 2.736439 5.880166 2.697148 -0.000001 -0.000001 0.000001 0.013970 0.439253 -3.642310 0.025878 0.597748 -4.959538 0.006483 0.299146 -2.479689 0.000000 0.000001 0.000000 0.013835 0.437322 -3.626333 0.026063 0.599657 -4.975520 0.006473 0.299168 -2.479722 0.000001 0.000002 -0.000001 0.013973 0.439238 -3.642309 0.025877 0.597754 -4.959539 0.006484 0.299149 -2.479703 -0.000000 0.000000 0.000000 0.254029 4.486454 -3.142209 0.013186 -3.456770 -5.468402 0.006483 0.299153 -2.479700 -0.000000 0.000000 -0.000000 4.570565 15.669530 -6.602644 0.000000 0.000000 0.000000 -6.422768 55.485878 16.577468 -0.000021 34.357573 0.000044 -33.438076 -29.057414 -18.368966 31.163947 -0.844533 -0.217465 -3.862231 -9.728358 -4.073795 -5.440179 -0.559758 -3.408884 0.000000 0.000002 0.000001 0.576943 -2.777852 23.461987 0.461903 -2.496413 20.962134 0.116377 -1.269381 10.476037 -0.000001 -0.000000 0.000001 0.576935 -2.777851 23.461987 0.461899 -2.496413 20.962131 0.116372 -1.269385 10.476032 0.000001 0.000002 -0.000000 0.576939 -2.777845 23.461982 0.461893 -2.496433 20.962141 0.116384 -1.269370 10.476042 -0.000000 -0.000000 -0.000000 0.576941 -2.777842 23.461982 0.461891 -2.496428 20.962132 0.116386 -1.269369 10.476042 -0.000002 0.000001 -0.000000 -68.293750 -1.522020 14.347789 34.954975 7.794000 -5.710528 4.463647 0.724643 6.610533 -0.218901 -0.000010 -0.000000 0.000000 -0.000000 0.000000 -12.089013 -21.192719 -20.093073 73.066727 -1.700280 -3.582601 30.928275 1.065262 2.983747 0.000016 -0.000004 0.000004 -0.000001 0.000001 0.000000 
-6.074535 106.686409 59.232056 26.666944 6.282053 -16.628415 6.389812 11.222819 -10.237750 11.857641 10.258348 -7.663915 0.000000 0.000000 0.000000 12.006329 10.104663 -7.655094 -10.259045 -6.869432 7.028369 -30.230711 -32.681543 18.611099 0.000000 -0.000000 -0.000000 -0.235982 3.479651 3.929613 0.000000 0.000000 0.000000 26.629929 -50.227650 -7.790022 0.000001 -20.582012 -0.000000 -12.116074 35.063845 -1.214163 -3.708770 -5.344638 -9.285597 10.685388 16.536450 0.020103 2.736437 5.880166 2.697146 0.000002 -0.000001 0.000002 0.013972 0.439254 -3.642310 0.025877 0.597749 -4.959539 0.006485 0.299142 -2.479687 -0.000001 0.000001 -0.000001 0.013834 0.437323 -3.626333 0.026063 0.599659 -4.975520 0.006472 0.299167 -2.479722 -0.000000 -0.000000 0.000001 0.013971 0.439241 -3.642309 0.025875 0.597754 -4.959539 0.006485 0.299145 -2.479704 -0.000000 0.000002 -0.000001 0.254028 4.486452 -3.142207 0.013185 -3.456768 -5.468403 0.006482 0.299153 -2.479703 -0.000000 0.000001 -0.000001 4.407065 14.991005 -6.564027 0.000000 0.000000 0.000000 -6.689366 53.585993 14.333835 -0.000003 32.841462 -0.000003 -34.852017 -27.174375 -18.930493 31.104415 -0.895775 -0.248187 -3.854500 -9.753759 -4.076057 -5.435731 -0.572174 -3.410869 0.000002 -0.000002 -0.000002 0.576097 -2.775886 23.444551 0.460479 -2.492690 20.929339 0.116006 -1.267403 10.459669 -0.000001 -0.000000 0.000000 0.576097 -2.775883 23.444553 0.460476 -2.492694 20.929341 0.116006 -1.267418 10.459670 -0.000001 -0.000001 0.000002 0.576097 -2.775877 23.444546 0.460472 -2.492700 20.929341 0.116009 -1.267409 10.459668 -0.000001 -0.000001 0.000003 0.576090 -2.775876 23.444544 0.460484 -2.492701 20.929339 0.116002 -1.267414 10.459663 -0.000002 0.000001 0.000000 -67.624863 -0.738889 14.208329 35.597546 6.830210 -5.516165 3.853042 0.717092 6.650501 -0.224735 0.000007 -0.000000 0.000000 0.000002 0.000000 -13.156077 -21.003308 -19.401572 71.308316 -1.221784 -3.962255 30.804536 0.984990 2.752569 0.000004 0.000012 0.000006 -0.000000 0.000001 -0.000001 
